<?xml version="1.0" encoding="UTF-8" standalone="no"?>
<!DOCTYPE svg PUBLIC "-//W3C//DTD SVG 1.1//EN"
 "http://www.w3.org/Graphics/SVG/1.1/DTD/svg11.dtd">
<!-- Generated by graphviz version 8.0.1 (20230327.1645)
 -->
<!-- Pages: 1 -->
<svg width="556pt" height="1272pt"
 viewBox="0.00 0.00 556.00 1272.00" xmlns="http://www.w3.org/2000/svg" xmlns:xlink="http://www.w3.org/1999/xlink">
<g id="graph0" class="graph" transform="scale(1 1) rotate(0) translate(4 1268)">
<polygon fill="#0e1117" stroke="none" points="-4,4 -4,-1268 552,-1268 552,4 -4,4"/>
<!-- I&#45;0 -->
<g id="node1" class="node">
<title>I&#45;0</title>
<polygon fill="none" stroke="white" points="479.5,-1264 370.5,-1264 370.5,-1100 479.5,-1100 479.5,-1264"/>
<text text-anchor="middle" x="425" y="-1238.8" font-family="Arial" font-size="14.00" fill="white">I&#45;0</text>
<text text-anchor="middle" x="425" y="-1207.8" font-family="Arial" font-size="14.00" fill="white">S &#45;&#45;&gt; . E </text>
<text text-anchor="middle" x="425" y="-1192.8" font-family="Arial" font-size="14.00" fill="white">E &#45;&#45;&gt; . E + T </text>
<text text-anchor="middle" x="425" y="-1177.8" font-family="Arial" font-size="14.00" fill="white">E &#45;&#45;&gt; . T </text>
<text text-anchor="middle" x="425" y="-1162.8" font-family="Arial" font-size="14.00" fill="white">T &#45;&#45;&gt; . T * F </text>
<text text-anchor="middle" x="425" y="-1147.8" font-family="Arial" font-size="14.00" fill="white">T &#45;&#45;&gt; . F </text>
<text text-anchor="middle" x="425" y="-1132.8" font-family="Arial" font-size="14.00" fill="white">F &#45;&#45;&gt; . i </text>
<text text-anchor="middle" x="425" y="-1117.8" font-family="Arial" font-size="14.00" fill="white">F &#45;&#45;&gt; . ( E ) </text>
</g>
<!-- I&#45;1 -->
<g id="node2" class="node">
<title>I&#45;1</title>
<polygon fill="none" stroke="green" points="282.5,-1049 173.5,-1049 173.5,-960 282.5,-960 282.5,-1049"/>
<text text-anchor="middle" x="228" y="-1023.8" font-family="Arial" font-size="14.00" fill="white">I&#45;1</text>
<text text-anchor="middle" x="228" y="-992.8" font-family="Arial" font-size="14.00" fill="white">S &#45;&#45;&gt; E . </text>
<text text-anchor="middle" x="228" y="-977.8" font-family="Arial" font-size="14.00" fill="white">E &#45;&#45;&gt; E . + T </text>
</g>
<!-- I&#45;0&#45;&gt;I&#45;1 -->
<g id="edge1" class="edge">
<title>I&#45;0&#45;&gt;I&#45;1</title>
<path fill="none" stroke="white" d="M370.12,-1132.11C343.71,-1108.58 312.05,-1080.38 285.33,-1056.57"/>
<polygon fill="white" stroke="white" points="288,-1054.37 278.2,-1050.33 283.34,-1059.6 288,-1054.37"/>
<text text-anchor="middle" x="312.5" y="-1070.8" font-family="Times New Roman,serif" font-size="14.00" fill="white">E</text>
</g>
<!-- I&#45;6 -->
<g id="node7" class="node">
<title>I&#45;6</title>
<polygon fill="none" stroke="green" points="214.5,-206.5 137.5,-206.5 137.5,-132.5 214.5,-132.5 214.5,-206.5"/>
<text text-anchor="middle" x="176" y="-181.3" font-family="Arial" font-size="14.00" fill="white">I&#45;6</text>
<text text-anchor="middle" x="176" y="-150.3" font-family="Arial" font-size="14.00" fill="white">F &#45;&#45;&gt; i . </text>
</g>
<!-- I&#45;0&#45;&gt;I&#45;6 -->
<g id="edge21" class="edge">
<title>I&#45;0&#45;&gt;I&#45;6</title>
<path fill="none" stroke="white" d="M425,-1099.74C425,-1070.08 425,-1036.27 425,-1005.5 425,-1005.5 425,-1005.5 425,-453.5 425,-369.38 461.49,-329.92 408,-265 389.76,-242.85 372.93,-256.91 346,-247 304.12,-231.58 258.04,-210.58 224.43,-194.48"/>
<polygon fill="white" stroke="white" points="226.38,-191.06 215.85,-189.87 223.34,-197.36 226.38,-191.06"/>
<text text-anchor="middle" x="427" y="-675.8" font-family="Times New Roman,serif" font-size="14.00" fill="white">i</text>
</g>
<!-- I&#45;7 -->
<g id="node8" class="node">
<title>I&#45;7</title>
<polygon fill="none" stroke="white" points="168.5,-429 59.5,-429 59.5,-265 168.5,-265 168.5,-429"/>
<text text-anchor="middle" x="114" y="-403.8" font-family="Arial" font-size="14.00" fill="white">I&#45;7</text>
<text text-anchor="middle" x="114" y="-372.8" font-family="Arial" font-size="14.00" fill="white">F &#45;&#45;&gt; ( . E ) </text>
<text text-anchor="middle" x="114" y="-357.8" font-family="Arial" font-size="14.00" fill="white">E &#45;&#45;&gt; . E + T </text>
<text text-anchor="middle" x="114" y="-342.8" font-family="Arial" font-size="14.00" fill="white">E &#45;&#45;&gt; . T </text>
<text text-anchor="middle" x="114" y="-327.8" font-family="Arial" font-size="14.00" fill="white">T &#45;&#45;&gt; . T * F </text>
<text text-anchor="middle" x="114" y="-312.8" font-family="Arial" font-size="14.00" fill="white">T &#45;&#45;&gt; . F </text>
<text text-anchor="middle" x="114" y="-297.8" font-family="Arial" font-size="14.00" fill="white">F &#45;&#45;&gt; . i </text>
<text text-anchor="middle" x="114" y="-282.8" font-family="Arial" font-size="14.00" fill="white">F &#45;&#45;&gt; . ( E ) </text>
</g>
<!-- I&#45;0&#45;&gt;I&#45;7 -->
<g id="edge22" class="edge">
<title>I&#45;0&#45;&gt;I&#45;7</title>
<path fill="none" stroke="white" d="M370.31,-1170.41C255.52,-1146.61 0,-1084.73 0,-1005.5 0,-1005.5 0,-1005.5 0,-748.5 0,-688.04 24.69,-537.3 44,-480 48.6,-466.35 54.5,-452.41 60.91,-438.95"/>
<polygon fill="white" stroke="white" points="64.41,-440.77 65.66,-430.25 58.12,-437.69 64.41,-440.77"/>
<text text-anchor="middle" x="2.5" y="-745.8" font-family="Times New Roman,serif" font-size="14.00" fill="white">(</text>
</g>
<!-- I&#45;10 -->
<g id="node11" class="node">
<title>I&#45;10</title>
<polygon fill="none" stroke="green" points="442,-214 338,-214 338,-125 442,-125 442,-214"/>
<text text-anchor="middle" x="390" y="-188.8" font-family="Arial" font-size="14.00" fill="white">I&#45;10</text>
<text text-anchor="middle" x="390" y="-157.8" font-family="Arial" font-size="14.00" fill="white">E &#45;&#45;&gt; T . </text>
<text text-anchor="middle" x="390" y="-142.8" font-family="Arial" font-size="14.00" fill="white">T &#45;&#45;&gt; T . * F </text>
</g>
<!-- I&#45;0&#45;&gt;I&#45;10 -->
<g id="edge19" class="edge">
<title>I&#45;0&#45;&gt;I&#45;10</title>
<path fill="none" stroke="white" d="M451.46,-1099.73C458.9,-1070.37 465,-1036.75 465,-1005.5 465,-1005.5 465,-1005.5 465,-748.5 465,-533.3 495.58,-472.63 439,-265 435.21,-251.08 429.17,-236.85 422.61,-223.81"/>
<polygon fill="white" stroke="white" points="425.25,-222.32 417.51,-215.09 419.05,-225.57 425.25,-222.32"/>
<text text-anchor="middle" x="472" y="-675.8" font-family="Times New Roman,serif" font-size="14.00" fill="white">T</text>
</g>
<!-- I&#45;11 -->
<g id="node12" class="node">
<title>I&#45;11</title>
<polygon fill="none" stroke="green" points="543.5,-206.5 460.5,-206.5 460.5,-132.5 543.5,-132.5 543.5,-206.5"/>
<text text-anchor="middle" x="502" y="-181.3" font-family="Arial" font-size="14.00" fill="white">I&#45;11</text>
<text text-anchor="middle" x="502" y="-150.3" font-family="Arial" font-size="14.00" fill="white">T &#45;&#45;&gt; F . </text>
</g>
<!-- I&#45;0&#45;&gt;I&#45;11 -->
<g id="edge20" class="edge">
<title>I&#45;0&#45;&gt;I&#45;11</title>
<path fill="none" stroke="white" d="M480,-1130.38C509.15,-1097.94 539,-1053.1 539,-1005.5 539,-1005.5 539,-1005.5 539,-346 539,-301.55 527.5,-252.11 517.32,-217.06"/>
<polygon fill="white" stroke="white" points="520.43,-216.25 514.22,-207.67 513.72,-218.25 520.43,-216.25"/>
<text text-anchor="middle" x="543.5" y="-675.8" font-family="Times New Roman,serif" font-size="14.00" fill="white">F</text>
</g>
<!-- I&#45;2 -->
<g id="node3" class="node">
<title>I&#45;2</title>
<polygon fill="none" stroke="white" points="208.5,-909 99.5,-909 99.5,-775 208.5,-775 208.5,-909"/>
<text text-anchor="middle" x="154" y="-883.8" font-family="Arial" font-size="14.00" fill="white">I&#45;2</text>
<text text-anchor="middle" x="154" y="-852.8" font-family="Arial" font-size="14.00" fill="white">E &#45;&#45;&gt; E + . T </text>
<text text-anchor="middle" x="154" y="-837.8" font-family="Arial" font-size="14.00" fill="white">T &#45;&#45;&gt; . T * F </text>
<text text-anchor="middle" x="154" y="-822.8" font-family="Arial" font-size="14.00" fill="white">T &#45;&#45;&gt; . F </text>
<text text-anchor="middle" x="154" y="-807.8" font-family="Arial" font-size="14.00" fill="white">F &#45;&#45;&gt; . i </text>
<text text-anchor="middle" x="154" y="-792.8" font-family="Arial" font-size="14.00" fill="white">F &#45;&#45;&gt; . ( E ) </text>
</g>
<!-- I&#45;1&#45;&gt;I&#45;2 -->
<g id="edge2" class="edge">
<title>I&#45;1&#45;&gt;I&#45;2</title>
<path fill="none" stroke="white" d="M207.78,-959.64C201.97,-947.05 195.47,-932.94 189.04,-919"/>
<polygon fill="white" stroke="white" points="191.98,-918.01 184.61,-910.4 185.62,-920.94 191.98,-918.01"/>
<text text-anchor="middle" x="201.5" y="-930.8" font-family="Times New Roman,serif" font-size="14.00" fill="white">+</text>
</g>
<!-- I&#45;3 -->
<g id="node4" class="node">
<title>I&#45;3</title>
<polygon fill="none" stroke="green" points="270.5,-724 161.5,-724 161.5,-635 270.5,-635 270.5,-724"/>
<text text-anchor="middle" x="216" y="-698.8" font-family="Arial" font-size="14.00" fill="white">I&#45;3</text>
<text text-anchor="middle" x="216" y="-667.8" font-family="Arial" font-size="14.00" fill="white">E &#45;&#45;&gt; E + T . </text>
<text text-anchor="middle" x="216" y="-652.8" font-family="Arial" font-size="14.00" fill="white">T &#45;&#45;&gt; T . * F </text>
</g>
<!-- I&#45;2&#45;&gt;I&#45;3 -->
<g id="edge3" class="edge">
<title>I&#45;2&#45;&gt;I&#45;3</title>
<path fill="none" stroke="white" d="M179.58,-774.79C184.79,-761.3 190.21,-747.26 195.23,-734.27"/>
<polygon fill="white" stroke="white" points="198.82,-735.69 199.16,-725.1 192.29,-733.17 198.82,-735.69"/>
<text text-anchor="middle" x="195" y="-745.8" font-family="Times New Roman,serif" font-size="14.00" fill="white">T</text>
</g>
<!-- I&#45;2&#45;&gt;I&#45;6 -->
<g id="edge17" class="edge">
<title>I&#45;2&#45;&gt;I&#45;6</title>
<path fill="none" stroke="white" d="M121.61,-774.78C72.98,-666.14 -7.27,-444.21 51,-265 56.61,-247.75 60.53,-242.93 75,-232 93.51,-218.01 103.92,-225.62 124,-214 125.37,-213.21 126.74,-212.38 128.1,-211.52"/>
<polygon fill="white" stroke="white" points="129.7,-213.98 136.01,-205.47 125.77,-208.19 129.7,-213.98"/>
<text text-anchor="middle" x="56" y="-528.3" font-family="Times New Roman,serif" font-size="14.00" fill="white">i</text>
</g>
<!-- I&#45;2&#45;&gt;I&#45;7 -->
<g id="edge18" class="edge">
<title>I&#45;2&#45;&gt;I&#45;7</title>
<path fill="none" stroke="white" d="M148.61,-774.51C141.61,-688.25 129.36,-537.33 121.47,-440.08"/>
<polygon fill="white" stroke="white" points="124.9,-440.07 120.6,-430.38 117.92,-440.63 124.9,-440.07"/>
<text text-anchor="middle" x="137.5" y="-605.8" font-family="Times New Roman,serif" font-size="14.00" fill="white">(</text>
</g>
<!-- I&#45;2&#45;&gt;I&#45;11 -->
<g id="edge16" class="edge">
<title>I&#45;2&#45;&gt;I&#45;11</title>
<path fill="none" stroke="white" d="M208.83,-798.85C232.97,-778.25 260.25,-751.9 280,-724 398.33,-556.81 466.35,-317.47 491.15,-217.34"/>
<polygon fill="white" stroke="white" points="494.78,-218.23 493.76,-207.68 487.98,-216.56 494.78,-218.23"/>
<text text-anchor="middle" x="410.5" y="-528.3" font-family="Times New Roman,serif" font-size="14.00" fill="white">F</text>
</g>
<!-- I&#45;4 -->
<g id="node5" class="node">
<title>I&#45;4</title>
<polygon fill="none" stroke="white" points="280,-584 176,-584 176,-480 280,-480 280,-584"/>
<text text-anchor="middle" x="228" y="-558.8" font-family="Arial" font-size="14.00" fill="white">I&#45;4</text>
<text text-anchor="middle" x="228" y="-527.8" font-family="Arial" font-size="14.00" fill="white">T &#45;&#45;&gt; T * . F </text>
<text text-anchor="middle" x="228" y="-512.8" font-family="Arial" font-size="14.00" fill="white">F &#45;&#45;&gt; . i </text>
<text text-anchor="middle" x="228" y="-497.8" font-family="Arial" font-size="14.00" fill="white">F &#45;&#45;&gt; . ( E ) </text>
</g>
<!-- I&#45;3&#45;&gt;I&#45;4 -->
<g id="edge4" class="edge">
<title>I&#45;3&#45;&gt;I&#45;4</title>
<path fill="none" stroke="white" d="M219.6,-634.85C220.64,-622.3 221.78,-608.36 222.89,-594.93"/>
<polygon fill="white" stroke="white" points="226.43,-595.56 223.77,-585.31 219.46,-594.99 226.43,-595.56"/>
<text text-anchor="middle" x="225.5" y="-605.8" font-family="Times New Roman,serif" font-size="14.00" fill="white">*</text>
</g>
<!-- I&#45;5 -->
<g id="node6" class="node">
<title>I&#45;5</title>
<polygon fill="none" stroke="green" points="354,-384 250,-384 250,-310 354,-310 354,-384"/>
<text text-anchor="middle" x="302" y="-358.8" font-family="Arial" font-size="14.00" fill="white">I&#45;5</text>
<text text-anchor="middle" x="302" y="-327.8" font-family="Arial" font-size="14.00" fill="white">T &#45;&#45;&gt; T * F . </text>
</g>
<!-- I&#45;4&#45;&gt;I&#45;5 -->
<g id="edge5" class="edge">
<title>I&#45;4&#45;&gt;I&#45;5</title>
<path fill="none" stroke="white" d="M248.81,-479.54C259.64,-452.75 272.78,-420.27 283.29,-394.28"/>
<polygon fill="white" stroke="white" points="286.82,-395.89 287.32,-385.3 280.33,-393.26 286.82,-395.89"/>
<text text-anchor="middle" x="264.5" y="-450.8" font-family="Times New Roman,serif" font-size="14.00" fill="white">F</text>
</g>
<!-- I&#45;4&#45;&gt;I&#45;6 -->
<g id="edge6" class="edge">
<title>I&#45;4&#45;&gt;I&#45;6</title>
<path fill="none" stroke="white" d="M225.19,-479.67C221.69,-425.85 214.45,-338.98 201,-265 198.17,-249.41 194.07,-232.63 190.02,-217.6"/>
<polygon fill="white" stroke="white" points="193.13,-216.7 187.09,-208 186.38,-218.57 193.13,-216.7"/>
<text text-anchor="middle" x="223" y="-343.3" font-family="Times New Roman,serif" font-size="14.00" fill="white">i</text>
</g>
<!-- I&#45;4&#45;&gt;I&#45;7 -->
<g id="edge7" class="edge">
<title>I&#45;4&#45;&gt;I&#45;7</title>
<path fill="none" stroke="white" d="M195.94,-479.54C187.95,-466.7 179.14,-452.56 170.34,-438.45"/>
<polygon fill="white" stroke="white" points="172.84,-436.83 164.58,-430.19 166.9,-440.53 172.84,-436.83"/>
<text text-anchor="middle" x="186.5" y="-450.8" font-family="Times New Roman,serif" font-size="14.00" fill="white">(</text>
</g>
<!-- I&#45;7&#45;&gt;I&#45;6 -->
<g id="edge14" class="edge">
<title>I&#45;7&#45;&gt;I&#45;6</title>
<path fill="none" stroke="white" d="M142.73,-264.67C148.49,-248.37 154.36,-231.76 159.53,-217.13"/>
<polygon fill="white" stroke="white" points="163.13,-218.45 163.16,-207.86 156.53,-216.12 163.13,-218.45"/>
<text text-anchor="middle" x="156" y="-235.8" font-family="Times New Roman,serif" font-size="14.00" fill="white">i</text>
</g>
<!-- I&#45;7&#45;&gt;I&#45;7 -->
<g id="edge15" class="edge">
<title>I&#45;7&#45;&gt;I&#45;7</title>
<path fill="none" stroke="white" d="M168.7,-366.19C179.12,-363.9 186.5,-357.5 186.5,-347 186.5,-340.27 183.47,-335.23 178.56,-331.87"/>
<polygon fill="white" stroke="white" points="180.28,-328.38 169.7,-327.81 177.61,-334.86 180.28,-328.38"/>
<text text-anchor="middle" x="189" y="-343.3" font-family="Times New Roman,serif" font-size="14.00" fill="white">(</text>
</g>
<!-- I&#45;8 -->
<g id="node9" class="node">
<title>I&#45;8</title>
<polygon fill="none" stroke="white" points="114.5,-214 5.5,-214 5.5,-125 114.5,-125 114.5,-214"/>
<text text-anchor="middle" x="60" y="-188.8" font-family="Arial" font-size="14.00" fill="white">I&#45;8</text>
<text text-anchor="middle" x="60" y="-157.8" font-family="Arial" font-size="14.00" fill="white">F &#45;&#45;&gt; ( E . ) </text>
<text text-anchor="middle" x="60" y="-142.8" font-family="Arial" font-size="14.00" fill="white">E &#45;&#45;&gt; E . + T </text>
</g>
<!-- I&#45;7&#45;&gt;I&#45;8 -->
<g id="edge8" class="edge">
<title>I&#45;7&#45;&gt;I&#45;8</title>
<path fill="none" stroke="white" d="M88.98,-264.67C84.79,-251.08 80.55,-237.29 76.65,-224.6"/>
<polygon fill="white" stroke="white" points="79.74,-223.76 73.45,-215.23 73.05,-225.81 79.74,-223.76"/>
<text text-anchor="middle" x="86.5" y="-235.8" font-family="Times New Roman,serif" font-size="14.00" fill="white">E</text>
</g>
<!-- I&#45;7&#45;&gt;I&#45;10 -->
<g id="edge11" class="edge">
<title>I&#45;7&#45;&gt;I&#45;10</title>
<path fill="none" stroke="white" d="M168.64,-293.99C180.52,-283.81 193.34,-273.63 206,-265 244.55,-238.73 291.35,-214.79 328.1,-197.58"/>
<polygon fill="white" stroke="white" points="329.1,-200.51 336.7,-193.13 326.16,-194.16 329.1,-200.51"/>
<text text-anchor="middle" x="264" y="-235.8" font-family="Times New Roman,serif" font-size="14.00" fill="white">T</text>
</g>
<!-- I&#45;7&#45;&gt;I&#45;11 -->
<g id="edge13" class="edge">
<title>I&#45;7&#45;&gt;I&#45;11</title>
<path fill="none" stroke="white" d="M168.78,-289.78C180.31,-280.35 192.96,-271.52 206,-265 255.74,-240.13 401.06,-238.47 451,-214 451.89,-213.56 452.78,-213.11 453.67,-212.63"/>
<polygon fill="white" stroke="white" points="455.25,-215.16 461.98,-206.97 451.61,-209.18 455.25,-215.16"/>
<text text-anchor="middle" x="378.5" y="-235.8" font-family="Times New Roman,serif" font-size="14.00" fill="white">F</text>
</g>
<!-- I&#45;8&#45;&gt;I&#45;2 -->
<g id="edge10" class="edge">
<title>I&#45;8&#45;&gt;I&#45;2</title>
<path fill="none" stroke="white" d="M41.41,-214.43C35.66,-230.1 30.03,-248.07 27,-265 18.19,-314.2 15.74,-534.55 23,-584 32.43,-648.27 35.53,-666.11 65,-724 72.72,-739.16 82.45,-754.36 92.63,-768.55"/>
<polygon fill="white" stroke="white" points="90.27,-770.25 99.01,-776.25 95.91,-766.11 90.27,-770.25"/>
<text text-anchor="middle" x="27.5" y="-528.3" font-family="Times New Roman,serif" font-size="14.00" fill="white">+</text>
</g>
<!-- I&#45;9 -->
<g id="node10" class="node">
<title>I&#45;9</title>
<polygon fill="none" stroke="green" points="110,-74 10,-74 10,0 110,0 110,-74"/>
<text text-anchor="middle" x="60" y="-48.8" font-family="Arial" font-size="14.00" fill="white">I&#45;9</text>
<text text-anchor="middle" x="60" y="-17.8" font-family="Arial" font-size="14.00" fill="white">F &#45;&#45;&gt; ( E ) . </text>
</g>
<!-- I&#45;8&#45;&gt;I&#45;9 -->
<g id="edge9" class="edge">
<title>I&#45;8&#45;&gt;I&#45;9</title>
<path fill="none" stroke="white" d="M60,-124.68C60,-111.84 60,-97.75 60,-84.73"/>
<polygon fill="white" stroke="white" points="63.5,-85.1 60,-75.1 56.5,-85.1 63.5,-85.1"/>
<text text-anchor="middle" x="62.5" y="-95.8" font-family="Times New Roman,serif" font-size="14.00" fill="white">)</text>
</g>
<!-- I&#45;10&#45;&gt;I&#45;4 -->
<g id="edge12" class="edge">
<title>I&#45;10&#45;&gt;I&#45;4</title>
<path fill="none" stroke="white" d="M395.55,-214.37C400.23,-268.5 401.04,-361.61 363,-429 346.13,-458.88 316.56,-482.72 289.38,-499.82"/>
<polygon fill="white" stroke="white" points="288,-497.17 281.28,-505.36 291.64,-503.15 288,-497.17"/>
<text text-anchor="middle" x="400.5" y="-343.3" font-family="Times New Roman,serif" font-size="14.00" fill="white">*</text>
</g>
</g>
</svg>
